<svg width="51" height="51" fill="none" xmlns="http://www.w3.org/2000/svg"><g clip-path="url(#a)" fill="#fff"><mask id="b"><path d="M38.066 20.034a1.696 1.696 0 0 0-2.391.132 1.706 1.706 0 0 0 .13 2.39c.7.628 1.778.552 2.39-.131a1.716 1.716 0 0 0-.13-2.39zm-.658 1.684a.636.636 0 0 1-.897.05.64.64 0 0 1-.048-.895.639.639 0 0 1 .897-.05c.256.229.278.639.048.895zm-22.865.858a1.696 1.696 0 0 0-1.597 1.784c.05.92.857 1.65 1.782 1.598a1.696 1.696 0 0 0 1.597-1.784c-.046-.92-.869-1.648-1.782-1.598zm.726 1.656c.019.35-.25.65-.599.67a.641.641 0 0 1-.668-.6.636.636 0 0 1 .6-.67.64.64 0 0 1 .667.6zm25.184-7.709-15.435-1.625a2.649 2.649 0 0 0-2.87 2.11l-4.307-5.32a2.648 2.648 0 0 0-3.72-.391l-6.768 5.478a.53.53 0 1 0 .666.822l6.768-5.478a1.589 1.589 0 0 1 2.232.236l4.961 6.129-1.366 12.97-6.13 4.96c-.68.552-1.68.446-2.232-.234L2.489 24.116a1.589 1.589 0 0 1 .235-2.232L6.1 19.15a.53.53 0 0 0-.666-.823l-3.377 2.733a2.648 2.648 0 0 0-.392 3.721l9.765 12.064a2.648 2.648 0 0 0 3.72.391l5.32-4.305c-.008.616.196 1.21.589 1.696.445.549 1.076.892 1.78.966l15.434 1.626a2.648 2.648 0 0 0 2.908-2.354l.742-7.045a.53.53 0 0 0-1.053-.11l-.741 7.044a1.589 1.589 0 0 1-1.745 1.412l-15.435-1.625c-.422-.045-.8-.25-1.068-.58a1.577 1.577 0 0 1-.344-1.165l1.625-15.435a1.59 1.59 0 0 1 1.745-1.412l15.435 1.626c.421.044.8.25 1.067.58.267.329.39.743.345 1.164l-.625 5.935a.53.53 0 0 0 1.052.11l.625-5.934a2.628 2.628 0 0 0-.574-1.941 2.628 2.628 0 0 0-1.78-.967zm-11.859 2.514a1.696 1.696 0 0 0-2.39.132 1.706 1.706 0 0 0 .13 2.39c.7.628 1.778.551 2.39-.132a1.716 1.716 0 0 0-.13-2.39zm-.658 1.684a.636.636 0 0 1-.896.05.64.64 0 0 1-.049-.896.639.639 0 0 1 .897-.05c.257.23.278.64.048.896zm-20.423.738a1.696 1.696 0 0 0-1.597 1.784c.05.92.857 1.65 1.782 1.599a1.696 1.696 0 0 0 1.597-1.784c-.046-.921-.869-1.649-1.782-1.599zm.726 1.657c.019.35-.25.65-.599.67a.641.641 0 0 1-.668-.6.636.636 0 0 1 .6-.67.64.64 0 0 1 .667.6zm6.676-7.649a1.695 1.695 0 0 0-1.597 1.784c.05.92.857 1.65 1.783 1.599a1.696 1.696 0 0 0 1.597-1.784c-.046-.921-.87-1.649-1.783-1.598zm.726 1.657c.02.35-.25.65-.598.67a.641.641 0 0 1-.668-.6.636.636 0 0 1 .599-.67.64.64 0 0 1 .667.6zm-1.47 12.56a1.696 1.696 0 0 0-1.598 1.784c.05.92.857 1.65 1.783 1.599a1.696 1.696 0 0 0 1.597-1.784c-.046-.922-.87-1.649-1.782-1.599zm.725 1.657c.02.35-.25.65-.598.67a.641.641 0 0 1-.668-.6.636.636 0 0 1 .599-.67.64.64 0 0 1 .667.6zm19.67-.65a1.706 1.706 0 0 0 .13 2.39 1.7 1.7 0 0 0 2.391-.133 1.716 1.716 0 0 0-.13-2.39 1.696 1.696 0 0 0-2.39.132zm1.733 1.551a.635.635 0 0 1-.896.05.64.64 0 0 1-.049-.896.639.639 0 0 1 .897-.05c.257.23.278.64.048.896zm-5.914-7.313a1.706 1.706 0 0 0 .13 2.391c.7.628 1.778.551 2.39-.132.552-.615.575-1.546.072-2.164-.614-.754-1.865-.905-2.592-.095zm1.733 1.553a.636.636 0 0 1-.897.05.645.645 0 0 1 .026-.966c.292-.237.634-.147.841.072.207.218.279.566.03.843zm-7.023 3.21a1.706 1.706 0 0 0 .13 2.391c.627.561 1.56.568 2.195.055.79-.64.826-1.897.066-2.578a1.696 1.696 0 0 0-2.391.133zm1.733 1.552a.636.636 0 0 1-.897.05.64.64 0 0 1-.048-.895.639.639 0 0 1 .897-.05c.256.23.278.64.048.895z"/></mask><path d="M38.066 20.034a1.696 1.696 0 0 0-2.391.132 1.706 1.706 0 0 0 .13 2.39c.7.628 1.778.552 2.39-.131a1.716 1.716 0 0 0-.13-2.39zm-.658 1.684a.636.636 0 0 1-.897.05.64.64 0 0 1-.048-.895.639.639 0 0 1 .897-.05c.256.229.278.639.048.895zm-22.865.858a1.696 1.696 0 0 0-1.597 1.784c.05.92.857 1.65 1.782 1.598a1.696 1.696 0 0 0 1.597-1.784c-.046-.92-.869-1.648-1.782-1.598zm.726 1.656c.019.35-.25.65-.599.67a.641.641 0 0 1-.668-.6.636.636 0 0 1 .6-.67.64.64 0 0 1 .667.6zm25.184-7.709-15.435-1.625a2.649 2.649 0 0 0-2.87 2.11l-4.307-5.32a2.648 2.648 0 0 0-3.72-.391l-6.768 5.478a.53.53 0 1 0 .666.822l6.768-5.478a1.589 1.589 0 0 1 2.232.236l4.961 6.129-1.366 12.97-6.13 4.96c-.68.552-1.68.446-2.232-.234L2.489 24.116a1.589 1.589 0 0 1 .235-2.232L6.1 19.15a.53.53 0 0 0-.666-.823l-3.377 2.733a2.648 2.648 0 0 0-.392 3.721l9.765 12.064a2.648 2.648 0 0 0 3.72.391l5.32-4.305c-.008.616.196 1.21.589 1.696.445.549 1.076.892 1.78.966l15.434 1.626a2.648 2.648 0 0 0 2.908-2.354l.742-7.045a.53.53 0 0 0-1.053-.11l-.741 7.044a1.589 1.589 0 0 1-1.745 1.412l-15.435-1.625c-.422-.045-.8-.25-1.068-.58a1.577 1.577 0 0 1-.344-1.165l1.625-15.435a1.59 1.59 0 0 1 1.745-1.412l15.435 1.626c.421.044.8.25 1.067.58.267.329.39.743.345 1.164l-.625 5.935a.53.53 0 0 0 1.052.11l.625-5.934a2.628 2.628 0 0 0-.574-1.941 2.628 2.628 0 0 0-1.78-.967zm-11.859 2.514a1.696 1.696 0 0 0-2.39.132 1.706 1.706 0 0 0 .13 2.39c.7.628 1.778.551 2.39-.132a1.716 1.716 0 0 0-.13-2.39zm-.658 1.684a.636.636 0 0 1-.896.05.64.64 0 0 1-.049-.896.639.639 0 0 1 .897-.05c.257.23.278.64.048.896zm-20.423.738a1.696 1.696 0 0 0-1.597 1.784c.05.92.857 1.65 1.782 1.599a1.696 1.696 0 0 0 1.597-1.784c-.046-.921-.869-1.649-1.782-1.599zm.726 1.657c.019.35-.25.65-.599.67a.641.641 0 0 1-.668-.6.636.636 0 0 1 .6-.67.64.64 0 0 1 .667.6zm6.676-7.649a1.695 1.695 0 0 0-1.597 1.784c.05.92.857 1.65 1.783 1.599a1.696 1.696 0 0 0 1.597-1.784c-.046-.921-.87-1.649-1.783-1.598zm.726 1.657c.02.35-.25.65-.598.67a.641.641 0 0 1-.668-.6.636.636 0 0 1 .599-.67.64.64 0 0 1 .667.6zm-1.47 12.56a1.696 1.696 0 0 0-1.598 1.784c.05.92.857 1.65 1.783 1.599a1.696 1.696 0 0 0 1.597-1.784c-.046-.922-.87-1.649-1.782-1.599zm.725 1.657c.02.35-.25.65-.598.67a.641.641 0 0 1-.668-.6.636.636 0 0 1 .599-.67.64.64 0 0 1 .667.6zm19.67-.65a1.706 1.706 0 0 0 .13 2.39 1.7 1.7 0 0 0 2.391-.133 1.716 1.716 0 0 0-.13-2.39 1.696 1.696 0 0 0-2.39.132zm1.733 1.551a.635.635 0 0 1-.896.05.64.64 0 0 1-.049-.896.639.639 0 0 1 .897-.05c.257.23.278.64.048.896zm-5.914-7.313a1.706 1.706 0 0 0 .13 2.391c.7.628 1.778.551 2.39-.132.552-.615.575-1.546.072-2.164-.614-.754-1.865-.905-2.592-.095zm1.733 1.553a.636.636 0 0 1-.897.05.645.645 0 0 1 .026-.966c.292-.237.634-.147.841.072.207.218.279.566.03.843zm-7.023 3.21a1.706 1.706 0 0 0 .13 2.391c.627.561 1.56.568 2.195.055.79-.64.826-1.897.066-2.578a1.696 1.696 0 0 0-2.391.133zm1.733 1.552a.636.636 0 0 1-.897.05.64.64 0 0 1-.048-.895.639.639 0 0 1 .897-.05c.256.23.278.64.048.895z" stroke="#fff" stroke-width="6" mask="url(#b)"/></g><defs><clipPath id="a"><path fill="#fff" transform="rotate(-38.988 32.097 11.362)" d="M0 0h36.12v36.12H0z"/></clipPath></defs></svg>