<svg width="40" height="40" viewBox="0 0 40 40" fill="none" xmlns="http://www.w3.org/2000/svg">
<path d="M0 20C0 31.0457 8.9543 40 20 40C31.0457 40 40 31.0457 40 20C40 8.9543 31.0457 0 20 0C8.9543 0 0 8.9543 0 20Z" fill="#E10856" fill-opacity="0.7"/>
<path d="M24.734 27.988C22.265 25.519 19.7957 23.0497 17.3265 20.5807C19.8015 18.1058 22.2768 15.6305 24.7521 13.1555C26.9109 10.9969 23.5479 7.65949 21.384 9.82343C18.3535 12.8539 15.323 15.8841 12.2925 18.9145C11.3767 19.8301 11.4017 21.3557 12.3105 22.2643C15.341 25.2948 18.3715 28.325 21.402 31.3554C23.5607 33.5146 26.8982 30.1516 24.734 27.988Z" fill="white"/>
</svg>
