<svg width="168" height="53" viewBox="0 0 168 53" fill="none" xmlns="http://www.w3.org/2000/svg">
<path d="M9.34262 21.8394V17.5994C9.34262 17.3232 9.56648 17.0994 9.84262 17.0994H21.7455C22.5739 17.0994 23.2455 16.4278 23.2455 15.5994V11.3999C23.2455 10.5715 22.5739 9.8999 21.7455 9.8999H2C1.17157 9.8999 0.5 10.5715 0.5 11.3999V37.7635C0.5 38.592 1.17157 39.2635 2 39.2635H7.84262C8.67105 39.2635 9.34262 38.592 9.34262 37.7635V30.0389C9.34262 29.7627 9.56648 29.5389 9.84262 29.5389H20.0819C20.9103 29.5389 21.5819 28.8673 21.5819 28.0389V23.8394C21.5819 23.011 20.9103 22.3394 20.0819 22.3394H9.84262C9.56648 22.3394 9.34262 22.1155 9.34262 21.8394Z" fill="white" stroke="#20000B"/>
<path d="M55.9591 9.8999H50.2178C49.3893 9.8999 48.7178 10.5715 48.7178 11.3999V37.7635C48.7178 38.592 49.3893 39.2635 50.2178 39.2635H69.0178C69.8462 39.2635 70.5178 38.592 70.5178 37.7635V33.402C70.5178 32.5736 69.8462 31.902 69.0178 31.902H57.9591C57.683 31.902 57.4591 31.6781 57.4591 31.402V11.3999C57.4591 10.5715 56.7876 9.8999 55.9591 9.8999Z" fill="white" stroke="#20000B"/>
<path d="M82.4719 37.7635V25.9478L88.3205 35.737C88.5913 36.1902 89.0803 36.4677 89.6082 36.4677H91.9404C92.4748 36.4677 92.9689 36.1833 93.2374 35.7211L99.1339 25.5704L99.198 37.7714C99.2024 38.5968 99.8727 39.2635 100.698 39.2635H105.888C106.718 39.2635 107.39 38.5894 107.388 37.7594L107.314 11.3957C107.312 10.5689 106.641 9.8999 105.814 9.8999H100.951C100.416 9.8999 99.9212 10.1851 99.653 10.6483L91.3189 25.0429C91.1275 25.3735 90.6511 25.376 90.4562 25.0476L81.9027 10.6344C81.6325 10.179 81.1422 9.8999 80.6127 9.8999H75.7451C74.9167 9.8999 74.2451 10.5715 74.2451 11.3999V37.7635C74.2451 38.592 74.9167 39.2635 75.7451 39.2635H80.9719C81.8003 39.2635 82.4719 38.592 82.4719 37.7635Z" fill="white" stroke="#20000B"/>
<circle cx="34.5633" cy="5.2" r="4.7" fill="white" stroke="#4B001B"/>
<path d="M29.6424 10.3999H33.8189H39.4354C40.7718 10.3999 41.8552 11.4833 41.8552 12.8197C41.8552 13.0302 41.8278 13.2397 41.7735 13.4431L39.8121 20.7999L39.2672 24.0841L38.1776 44.3367H44.1556C45.9694 44.3367 47.4398 45.8071 47.4398 47.621H47.9745C49.1837 47.621 50.164 48.6012 50.164 49.8104C50.164 51.0196 49.1837 51.9999 47.9745 51.9999H20.208C18.9988 51.9999 18.0186 51.0196 18.0186 49.8104C18.0186 48.6012 18.9988 47.621 20.208 47.621H21.2876C21.2876 45.8071 22.758 44.3367 24.5718 44.3367H31.0947L29.4602 24.0841L26.9212 13.8812C26.7999 13.3938 26.8118 12.8829 26.9555 12.4017C27.3102 11.2139 28.4027 10.3999 29.6424 10.3999Z" fill="#E10856"/>
<path d="M39.2672 24.0841L38.1776 44.3367M39.2672 24.0841H34.6361M39.2672 24.0841L39.8121 20.7999L41.7735 13.4431C41.8278 13.2397 41.8552 13.0302 41.8552 12.8197V12.8197C41.8552 11.4833 40.7718 10.3999 39.4354 10.3999H33.8189H29.6424C28.4027 10.3999 27.3102 11.2139 26.9555 12.4017V12.4017C26.8118 12.8829 26.7999 13.3938 26.9212 13.8812L29.4602 24.0841M29.4602 24.0841L31.0947 44.3367M29.4602 24.0841H34.6361M31.0947 44.3367H34.6361M31.0947 44.3367H24.5718C22.758 44.3367 21.2876 45.8071 21.2876 47.621V47.621M38.1776 44.3367H34.6361M38.1776 44.3367H44.1556C45.9694 44.3367 47.4398 45.8071 47.4398 47.621V47.621M34.6361 44.3367V34.2104V24.0841M47.4398 47.621H21.2876M47.4398 47.621H47.9745C49.1837 47.621 50.164 48.6012 50.164 49.8104V49.8104C50.164 51.0196 49.1837 51.9999 47.9745 51.9999H20.208C18.9988 51.9999 18.0186 51.0196 18.0186 49.8104V49.8104C18.0186 48.6012 18.9988 47.621 20.208 47.621H21.2876" stroke="#5E0122"/>
<path d="M143.903 36.5654L143.905 36.5674C146.271 39.0138 149.557 40.209 153.691 40.209C157.825 40.209 161.099 39.0143 163.44 36.5665C165.806 34.1204 166.955 30.6825 166.955 26.327V11.3999C166.955 10.5715 166.283 9.8999 165.455 9.8999H159.89C159.062 9.8999 158.39 10.5715 158.39 11.3999V26.0807C158.39 28.3321 157.969 29.9298 157.208 30.9548C156.468 31.9519 155.352 32.4769 153.769 32.4769C152.171 32.4769 151.046 31.9508 150.299 30.9533C149.533 29.9286 149.109 28.3315 149.109 26.0807V11.3999C149.109 10.5715 148.438 9.8999 147.609 9.8999H141.928C141.099 9.8999 140.428 10.5715 140.428 11.3999V26.327C140.428 30.6816 141.564 34.1191 143.903 36.5654Z" fill="#E10856" stroke="#5E0122"/>
<path d="M134.018 34.7792H136.146C136.974 34.7792 137.646 34.1077 137.646 33.2792V29.2283C137.646 28.3999 136.974 27.7283 136.146 27.7283H134.018C133.742 27.7283 133.518 27.5045 133.518 27.2283V12.3452C133.518 11.5168 132.846 10.8452 132.018 10.8452H123.64C123.164 10.8452 122.716 11.0713 122.433 11.4544L110.466 27.6666C110.276 27.9246 110.173 28.2368 110.173 28.5574V33.2792C110.173 34.1077 110.844 34.7792 111.673 34.7792H125.804C126.08 34.7792 126.304 35.0031 126.304 35.2792V38.7089C126.304 39.5373 126.975 40.2089 127.804 40.2089H132.018C132.846 40.2089 133.518 39.5373 133.518 38.7089V35.2792C133.518 35.0031 133.742 34.7792 134.018 34.7792ZM125.804 27.7283H119.444C119.031 27.7283 118.796 27.2559 119.045 26.9266L125.405 18.5238C125.695 18.1415 126.304 18.3461 126.304 18.8255V27.2283C126.304 27.5045 126.08 27.7283 125.804 27.7283Z" fill="#E10856" stroke="#5E0122"/>
</svg>
