<?xml version="1.0" standalone="no"?>
<!DOCTYPE svg PUBLIC "-//W3C//DTD SVG 20010904//EN"
 "http://www.w3.org/TR/2001/REC-SVG-20010904/DTD/svg10.dtd">
<svg version="1.0" xmlns="http://www.w3.org/2000/svg"
 width="262.000000pt" height="262.000000pt" viewBox="0 0 262.000000 262.000000"
 preserveAspectRatio="xMidYMid meet">
<metadata>
Created by potrace 1.14, written by Peter Selinger 2001-2017
</metadata>
<g transform="translate(0.000000,262.000000) scale(0.100000,-0.100000)"
fill="#000000" stroke="none">
<path d="M1255 2608 c-201 -70 -239 -342 -65 -459 l40 -27 -110 -4 c-107 -3
-110 -4 -139 -33 -17 -17 -36 -51 -42 -77 -13 -49 -13 -51 77 -413 49 -196 49
-193 59 -335 3 -47 8 -107 10 -135 3 -27 7 -81 10 -120 3 -38 7 -95 10 -125 4
-50 10 -122 20 -250 2 -25 6 -81 10 -126 l7 -80 -205 0 c-185 -1 -206 -2 -230
-20 -25 -18 -61 -88 -56 -110 4 -25 -5 -32 -49 -38 -91 -12 -138 -103 -97
-189 33 -70 0 -67 812 -67 779 0 757 -1 795 51 58 77 1 209 -89 209 -20 0 -23
5 -23 35 0 49 -24 91 -63 112 -27 14 -63 17 -215 17 l-183 0 6 106 c13 232 15
269 20 375 3 61 8 148 10 195 3 47 7 130 10 185 5 98 11 159 19 201 2 12 7 37
10 56 3 19 28 118 56 222 53 200 59 249 34 297 -22 43 -68 59 -170 59 l-87 0
41 30 c198 143 107 455 -136 465 -37 2 -80 -2 -97 -7z"/>
</g>
</svg>
