<svg width="94" height="94" viewBox="0 0 94 94" fill="none" xmlns="http://www.w3.org/2000/svg">
<g clip-path="url(#clip0_1127:3448)">
<path d="M93.755 34.2219C93.1396 32.3185 91.4514 30.9666 89.454 30.7866L62.3231 28.3231L51.5947 3.21243C50.8037 1.37215 49.0021 0.180908 47.0005 0.180908C44.9988 0.180908 43.1973 1.37215 42.4062 3.21674L31.6779 28.3231L4.54262 30.7866C2.54885 30.9709 0.864909 32.3185 0.245981 34.2219C-0.372946 36.1253 0.198647 38.213 1.70688 39.5291L22.2147 57.5145L16.1674 84.1528C15.7249 86.1114 16.4851 88.136 18.1103 89.3108C18.9838 89.9419 20.0058 90.2632 21.0364 90.2632C21.9249 90.2632 22.8064 90.0236 23.5974 89.5503L47.0005 75.5631L70.3949 89.5503C72.1068 90.5802 74.2648 90.4862 75.8864 89.3108C77.5122 88.1324 78.2717 86.1071 77.8292 84.1528L71.782 57.5145L92.2898 39.5326C93.798 38.213 94.3739 36.1289 93.755 34.2219Z" fill="#E10856"/>
</g>
<defs>
<clipPath id="clip0_1127:3448">
<rect width="94" height="94" fill="white"/>
</clipPath>
</defs>
</svg>
