<svg width="40" height="40" viewBox="0 0 40 40" fill="none" xmlns="http://www.w3.org/2000/svg">
<path d="M40 20C40 8.9543 31.0457 0 20 0C8.9543 0 0 8.9543 0 20C0 31.0457 8.9543 40 20 40C31.0457 40 40 31.0457 40 20Z" fill="#E10856" fill-opacity="0.7"/>
<path d="M15.266 12.012C17.735 14.481 20.2043 16.9503 22.6735 19.4193C20.1985 21.8942 17.7232 24.3695 15.2479 26.8445C13.0891 29.0031 16.4521 32.3405 18.616 30.1766C21.6465 27.1461 24.677 24.1159 27.7075 21.0855C28.6233 20.1699 28.5983 18.6443 27.6895 17.7357C24.659 14.7052 21.6285 11.675 18.598 8.64457C16.4393 6.48535 13.1018 9.8484 15.266 12.012Z" fill="white"/>
</svg>
